<svg width="300" height="300" viewBox="0 0 300 300" fill="none" xmlns="http://www.w3.org/2000/svg">
<rect width="300" height="300" fill="#191919"/>
<path d="M32 123.571H40.2857C41.9426 123.571 43.2857 122.228 43.2857 120.571V98C43.2857 96.3431 44.6289 95 46.2857 95H54.5714C56.2283 95 57.5714 96.3431 57.5714 98V120.571C57.5714 122.228 58.9146 123.571 60.5714 123.571H83.1429C84.7997 123.571 86.1429 124.915 86.1429 126.571V134.857C86.1429 136.514 84.7997 137.857 83.1429 137.857H60.5714C58.9146 137.857 57.5714 139.2 57.5714 140.857V180.714H83.1429C84.7997 180.714 86.1429 182.057 86.1429 183.714V192C86.1429 193.657 84.7997 195 83.1429 195H60.5714C58.9146 195 57.5714 193.657 57.5714 192V180.714H46.2857C44.6289 180.714 43.2857 179.371 43.2857 177.714V140.857C43.2857 139.2 41.9426 137.857 40.2857 137.857H32C30.3431 137.857 29 136.514 29 134.857V126.571C29 124.915 30.3431 123.571 32 123.571Z" fill="#FCFCFC"/>
<path d="M100.429 192V140.857C100.429 139.2 101.772 137.857 103.429 137.857H114.714V126.571C114.714 124.915 116.057 123.571 117.714 123.571H140.286C141.943 123.571 143.286 124.915 143.286 126.571V134.857C143.286 136.514 141.943 137.857 140.286 137.857H114.714V192C114.714 193.657 113.371 195 111.714 195H103.429C101.772 195 100.429 193.657 100.429 192Z" fill="#FCFCFC"/>
<path d="M157.571 177.714V98C157.571 96.3431 158.915 95 160.571 95H168.857C170.514 95 171.857 96.3431 171.857 98V180.714H197.429C199.085 180.714 200.429 182.057 200.429 183.714V192C200.429 193.657 199.085 195 197.429 195H174.857C173.2 195 171.857 193.657 171.857 192V180.714H160.571C158.915 180.714 157.571 179.371 157.571 177.714Z" fill="#FCFCFC"/>
<path d="M214.714 177.714V140.857C214.714 139.2 216.057 137.857 217.714 137.857H229V126.571C229 124.915 230.343 123.571 232 123.571H268.857C270.514 123.571 271.857 124.915 271.857 126.571V134.857C271.857 136.514 270.514 137.857 268.857 137.857H229V180.714H268.857C270.514 180.714 271.857 182.057 271.857 183.714V192C271.857 193.657 270.514 195 268.857 195H232C230.343 195 229 193.657 229 192V180.714H217.714C216.057 180.714 214.714 179.371 214.714 177.714Z" fill="#FCFCFC"/>
</svg>
