<svg width="1700" height="700" viewBox="0 0 1700 700" fill="none" xmlns="http://www.w3.org/2000/svg">
<path d="M21 200H79C90.598 200 100 190.598 100 179V21C100 9.40202 109.402 0 121 0H179C190.598 0 200 9.40202 200 21V179C200 190.598 209.402 200 221 200H379C390.598 200 400 209.402 400 221V279C400 290.598 390.598 300 379 300H221C209.402 300 200 309.402 200 321V600H379C390.598 600 400 609.402 400 621V679C400 690.598 390.598 700 379 700H221C209.402 700 200 690.598 200 679V600H121C109.402 600 100 590.598 100 579V321C100 309.402 90.598 300 79 300H21C9.40202 300 0 290.598 0 279V221C0 209.402 9.40202 200 21 200Z" fill="#FCFCFC"/>
<path d="M500 679V321C500 309.402 509.402 300 521 300H600V221C600 209.402 609.402 200 621 200H779C790.598 200 800 209.402 800 221V279C800 290.598 790.598 300 779 300H600V679C600 690.598 590.598 700 579 700H521C509.402 700 500 690.598 500 679Z" fill="#FCFCFC"/>
<path d="M900 579V21C900 9.40202 909.402 0 921 0H979C990.598 0 1000 9.40204 1000 21V600H1179C1190.6 600 1200 609.402 1200 621V679C1200 690.598 1190.6 700 1179 700H1021C1009.4 700 1000 690.598 1000 679V600H921C909.402 600 900 590.598 900 579Z" fill="#FCFCFC"/>
<path d="M1300 579V321C1300 309.402 1309.4 300 1321 300H1400V221C1400 209.402 1409.4 200 1421 200H1679C1690.6 200 1700 209.402 1700 221V279C1700 290.598 1690.6 300 1679 300H1400V600H1679C1690.6 600 1700 609.402 1700 621V679C1700 690.598 1690.6 700 1679 700H1421C1409.4 700 1400 690.598 1400 679V600H1321C1309.4 600 1300 590.598 1300 579Z" fill="#FCFCFC"/>
</svg>
